<?xml version="1.0" encoding="UTF-8"?>
<svg xmlns="http://www.w3.org/2000/svg" viewBox="0 0 265.68 266.4">
  <g id="Layer_1" data-name="Layer 1"/>
  <g id="Layer_2" data-name="Layer 2">
    <g id="Layer_1-2" data-name="Layer 1">
      <g>
        <rect x="4.44" y="19.62" width="250.06" height="222.75" fill="#fff"/>
        <g>
          <path d="M256.57,266.4H9.35c-.19-.07-.37-.15-.56-.19-5.08-1.1-8.31-5.06-8.31-10.26,0-81.67,0-163.34,0-245.02,0-1.01,.11-1.99,.38-2.96C2.14,3.36,6.11,.48,11.18,.48c81.15,0,162.3,0,243.46,0,.32,0,.64,0,.96,0,2.49,.06,4.68,.89,6.57,2.51,1.97,1.68,2.97,3.89,3.51,6.36v248.18c-.43,1.77-.99,3.48-2.15,4.94-1.8,2.25-4.16,3.46-6.96,3.93ZM136.44,67.97c0,20.02,0,40.04,0,60.05,0,1.88-.19,1.7,1.64,1.7,40,0,79.99,0,119.99,0q1.61,0,1.62-1.61c0-38.92,0-77.83,0-116.75,0-3.25-1.62-4.89-4.83-4.89-38.96,0-77.91,0-116.87,0q-1.54,0-1.54,1.56c0,19.98,0,39.96,0,59.93Zm0,130.86c0,19.94,0,39.88,0,59.81,0,1.96-.22,1.76,1.7,1.76,38.84,0,77.67,0,116.51,0,3.48,0,5.04-1.56,5.04-5.05,0-38.84,0-77.67,0-116.51,0-1.87,.19-1.69-1.65-1.69-40,0-79.99,0-119.99,0q-1.61,0-1.61,1.62c0,20.02,0,40.04,0,60.05Zm-6.71-130.73c0-20.02,0-40.04,0-60.05q0-1.57-1.53-1.57c-38.96,0-77.91,0-116.87,0-3.22,0-4.84,1.64-4.84,4.88,0,38.96,0,77.91-.03,116.87,0,1.21,.3,1.52,1.52,1.52,40.08-.03,80.15-.03,120.23-.03q1.53,0,1.53-1.57c0-20.02,0-40.04,0-60.05Zm-61.56,69.06c-20.02,0-40.04,0-60.05,0q-1.63,0-1.64,1.59c0,38.92,0,77.83,0,116.75,0,3.31,1.61,4.91,4.93,4.91,38.92,0,77.83,0,116.75,0q1.56,0,1.56-1.54c0-40.04,0-80.07,0-120.11q0-1.6-1.62-1.6c-19.98,0-39.96,0-59.93,0Z" fill="#25adec"/>
          <path d="M136.44,67.97c0-19.98,0-39.96,0-59.93q0-1.56,1.54-1.56c38.96,0,77.91,0,116.87,0,3.22,0,4.83,1.64,4.83,4.89,0,38.92,0,77.83,0,116.75q0,1.61-1.62,1.61c-40,0-79.99,0-119.99,0-1.83,0-1.64,.18-1.64-1.7,0-20.02,0-40.04,0-60.05Zm40.04-4.24c0,9.59,0,19.18,0,28.76,0,2.26,.93,3.18,3.23,3.18,2.72,0,5.44-.1,8.15,.03,1.94,.09,3.29-1.36,3.28-3.26-.07-11.86-.01-23.73-.05-35.59-.01-3.82,1.28-7.03,4.03-9.68,3.08-2.97,6.69-3.64,10.75-2.6,2.61,.67,4.88,2.05,7.16,3.39,2.42,1.41,3.72,1.21,5.1-.99,1.03-1.65,2.19-3.23,3.15-4.92,1.41-2.49,1.33-3.55-.6-5.11-1.57-1.27-3.26-2.41-5.07-3.35-2.54-1.33-5.2-2.19-8.11-2.46-2.74-.26-5.42-.32-8.07,.46-3.78,1.12-6.75,3.39-9.04,6.57-.14,.2-.25,.45-.51,.41-.33-.06-.21-.38-.21-.59,.01-1.35-.37-2.63-.75-3.89-.47-1.53-1.45-2.18-3.07-2.18-2.12,0-4.23-.01-6.35,0-1.72,.01-3.02,1.35-3.02,3.07,0,9.59,0,19.18,0,28.76Z" fill="#3c4f76"/>
          <path d="M136.44,198.83c0-20.02,0-40.04,0-60.05q0-1.61,1.61-1.62c40,0,79.99,0,119.99,0,1.84,0,1.65-.18,1.65,1.69,0,38.84,0,77.67,0,116.51,0,3.49-1.55,5.05-5.04,5.05-38.84,0-77.67,0-116.51,0-1.92,0-1.7,.2-1.7-1.76,0-19.94,0-39.88,0-59.81Zm40.04-1.04c0,9.63,0,19.26,0,28.88,0,2.06,.98,3.04,3.01,3.05,2.84,0,5.68-.08,8.51,.03,1.77,.07,3.15-1.37,3.14-3.15-.06-11.9,0-23.81-.04-35.71-.01-3.82,1.29-7.03,4.04-9.68,3.09-2.97,6.7-3.64,10.75-2.59,2.65,.68,4.92,2.12,7.25,3.46,2.25,1.29,3.53,1.22,4.92-.98,1.06-1.68,2.25-3.29,3.22-5.02,1.37-2.41,1.35-3.48-.53-5.03-1.59-1.31-3.32-2.46-5.16-3.43-2.54-1.34-5.21-2.19-8.11-2.46-2.38-.22-4.73-.32-7.06,.21-4.23,.96-7.53,3.35-10.05,6.84-.14,.19-.24,.45-.51,.39-.32-.08-.19-.39-.19-.6,0-1.31-.36-2.55-.74-3.78-.51-1.63-1.43-2.28-3.1-2.29-2.08,0-4.15,0-6.23,0-1.81,0-3.13,1.31-3.13,3.09,0,9.59,0,19.18,0,28.76Z" fill="#3c4f76"/>
          <path d="M129.72,68.1c0,20.02,0,40.04,0,60.05q0,1.57-1.53,1.57c-40.08,0-80.15,0-120.23,.03-1.22,0-1.52-.31-1.52-1.52,.03-38.96,.03-77.91,.03-116.87,0-3.25,1.62-4.88,4.84-4.88,38.96,0,77.91,0,116.87,0q1.53,0,1.53,1.57c0,20.02,0,40.04,0,60.05Zm-62.69-35.73c-18.48,.05-32.29,14.61-32.97,31.33-.82,20.36,15.12,33.96,31.37,34.59,20.23,.78,33.93-15.09,34.56-31.43,.76-19.89-15.09-34.58-32.96-34.49Z" fill="#3c4f76"/>
          <path d="M68.16,137.16c19.98,0,39.96,0,59.93,0q1.62,0,1.62,1.6c0,40.04,0,80.07,0,120.11q0,1.54-1.56,1.54c-38.92,0-77.83,0-116.75,0-3.33,0-4.93-1.6-4.93-4.91,0-38.92,0-77.83,0-116.75q0-1.59,1.64-1.59c20.02,0,40.04,0,60.05,0Zm15.4,85.62c.42,1.69,.27,3.35,.84,4.91,.52,1.42,1.28,2.02,2.76,2.03,2.6,0,5.19,0,7.79,0,2.05,0,3.12-1.07,3.12-3.12,0-25.33,0-50.67,0-76,0-2.15-1.54-3.37-3.39-3.36-2.8,0-5.59,0-8.39,0-1.78,0-2.85,1.1-2.85,2.86,0,7.15,0,14.31,0,21.46,0,.41,.13,.85-.16,1.31-1.25-1.44-2.67-2.56-4.17-3.58-3.42-2.3-7.14-3.69-11.3-4.12-4.1-.42-8.1-.15-12.03,.96-6.44,1.82-11.8,5.32-16.05,10.54-4.4,5.41-6.83,11.62-7.32,18.53-.37,5.22,.2,10.37,2.21,15.28,1.55,3.79,3.59,7.29,6.42,10.28,2.15,2.27,4.55,4.22,7.25,5.82,4.35,2.58,9.05,3.99,14.07,4.32,2.36,.15,4.75,.09,7.08-.45,2.66-.62,5.22-1.42,7.63-2.79,2.37-1.34,4.55-2.88,6.5-4.87Z" fill="#3c4f76"/>
          <path d="M48.41,65.27c.28-7.01,3.05-12.71,8.93-16.73,3.35-2.29,7.11-3.33,11.14-2.95,3.56,.33,6.76,1.68,9.56,4,4.18,3.48,6.43,7.92,7.11,13.29,.73,5.8-.76,10.92-4.39,15.46-2.9,3.62-6.65,5.68-11.25,6.32-6.86,.96-12.36-1.56-16.72-6.65-2.39-2.79-3.69-6.19-4.15-9.89-.12-.95-.18-1.88-.23-2.84Z" fill="#3c4f76"/>
          <path d="M46.76,197.99c.08-5.06,1.58-9.58,4.97-13.43,3.89-4.43,8.71-6.71,14.61-6.37,3.87,.22,7.31,1.73,10.37,4.13,4.05,3.17,6.34,7.38,7.38,12.3,.78,3.71,.23,7.39-1.25,10.82-2.3,5.34-6.18,9.19-11.75,11.06-6.06,2.04-11.81,1.13-16.85-2.76-4.14-3.19-6.62-7.52-7.25-12.81-.06-.5-.3-.97-.25-1.51,.05-.47,.01-.96,.01-1.44Z" fill="#3c4f76"/>
        </g>
      </g>
    </g>
  </g>
</svg>